<svg width="409" height="205" viewBox="0 0 409 205" fill="none" xmlns="http://www.w3.org/2000/svg">
<path fill-rule="evenodd" clip-rule="evenodd" d="M14.4319 102.579C13.0044 102.999 11.524 102.984 9.99081 102.535C8.47116 102.131 7.14515 101.195 6.01281 99.7274C5.60646 99.1964 5.25564 98.5992 4.96035 97.9355C4.71111 97.2583 4.49167 96.5974 4.30202 95.9527C4.11237 95.308 4.13267 94.9518 4.36292 94.8841C4.59316 94.8164 4.76924 94.9897 4.89116 95.4042C5.51428 97.5224 6.52473 99.0014 7.92251 99.841C9.3528 100.621 10.8968 100.767 12.5546 100.28C14.5807 99.6836 16.3062 98.5756 17.7309 96.9557C19.2017 95.3222 20.4368 93.4829 21.4363 91.4377C22.4222 89.3465 23.2469 87.3026 23.9105 85.3062C23.4527 85.7911 23.0396 86.0877 22.6713 86.1961C22.1647 86.3451 21.8803 86.2287 21.818 85.8467C21.7909 85.7546 21.78 85.6327 21.7854 85.481L21.8708 85.0056C21.9005 84.5966 21.9005 84.1713 21.8707 83.7298C21.8869 83.2747 21.9099 82.8427 21.9397 82.4336C21.8746 80.8517 21.7012 78.9014 21.4193 76.5827C21.1375 74.2639 20.6647 71.9764 20.0009 69.72C19.432 67.7859 18.706 65.9982 17.8228 64.3567C16.9397 62.7152 15.852 61.4841 14.5599 60.6634L12.9021 61.151C12.2114 61.3542 11.2579 61.6848 10.0417 62.1426C8.87151 62.5869 7.71217 63.1531 6.56368 63.8412C5.41518 64.5293 4.53486 65.3636 3.92272 66.3442C3.31058 67.3249 3.23343 68.4233 3.69128 69.6395C3.8457 69.9944 4.13285 70.4602 4.55274 71.0372C4.95909 71.5681 5.2056 71.8959 5.29229 72.0205L4.76411 72.7762C4.33881 72.351 3.82412 71.877 3.22003 71.3542C2.6024 70.7854 2.01456 70.2328 1.45652 69.6965C0.944533 69.1466 0.618102 68.7173 0.47723 68.4085C0.295719 67.9616 0.142643 67.3562 0.0180019 66.5923C-0.0605903 65.8149 0.118154 65.0618 0.554235 64.3331C1.06887 63.5313 1.89773 62.8622 3.04081 62.3258C4.22995 61.7758 5.4692 61.3112 6.75857 60.9319C8.00189 60.5662 9.21271 60.26 10.391 60.0135C11.5693 59.7669 12.5269 59.5353 13.2637 59.3185L16.441 58.3838C18.5918 57.7011 21.2098 56.906 24.2951 55.9984L23.3728 58.221L20.1955 59.1557C19.3991 59.3399 18.6786 59.5268 18.0339 59.7165C17.4217 59.8465 16.6781 60.0403 15.8032 60.2976C17.74 60.9287 19.3058 62.1692 20.5004 64.0193C21.7412 65.8558 22.7002 67.9253 23.3775 70.2277C23.96 72.2078 24.3745 74.2123 24.6211 76.2412C24.8542 78.224 24.9829 79.9373 25.0074 81.3811C26.2912 77.7513 27.4558 74.0564 28.5012 70.2966C29.5466 66.5367 30.8764 62.8933 32.4907 59.3664C33.0162 58.2611 33.6459 57.0002 34.3799 55.5834C35.1464 54.1071 36.0457 52.7418 37.0777 51.4876C38.1557 50.2198 39.3624 49.3895 40.6979 48.9967C41.3426 48.807 41.9358 48.7826 42.4775 48.9235C43.0193 49.0643 43.553 49.4327 44.0785 50.0286C44.4713 50.5134 44.7354 50.9861 44.8709 51.4466C45.0876 52.1834 45.1459 52.8917 45.0457 53.5716C44.9455 54.2516 44.8738 54.773 44.8304 55.136C44.8386 55.3337 44.7505 55.4597 44.5663 55.5139C44.3821 55.5681 44.286 55.4963 44.2778 55.2985C44.3022 55.0412 44.2805 54.7974 44.2128 54.5672L44.0299 53.9455C43.7861 53.1166 43.3554 52.4178 42.7377 51.849C42.1201 51.2801 41.3508 51.1312 40.4298 51.4021C39.1404 51.7814 37.9026 52.846 36.7162 54.596C35.5298 56.3459 34.4925 58.1771 33.6041 60.0896C32.0223 63.5569 30.7222 66.7913 29.7039 69.7927C28.7315 72.7805 27.8649 75.7873 27.1038 78.8131C26.3293 81.7928 25.5141 85.0596 24.6583 88.6136C24.1925 90.6019 23.5451 92.5685 22.7164 94.5135C21.9201 96.3988 20.8583 98.0621 19.531 99.5032C18.2499 100.931 16.5501 101.956 14.4319 102.579ZM40.2836 92.1977C39.5468 92.4144 38.8384 92.4727 38.1585 92.3725C37.5111 92.2127 37.0384 91.6263 36.7404 90.6132C36.2663 89.0015 36.2066 87.2678 36.5613 85.4123C36.9026 83.5107 37.3278 81.8096 37.8369 80.3089C38.3082 79.0195 38.8919 77.772 39.588 76.5666C40.3166 75.3015 41.1549 74.1543 42.103 73.1249C42.7043 72.4477 43.5521 71.6729 44.6464 70.8007C45.7732 69.8688 46.7741 69.2742 47.649 69.0168C48.3858 68.8 49.0914 68.8176 49.7659 69.0695C50.4269 69.2753 50.9064 69.8848 51.2044 70.8979C51.665 72.4635 51.7247 74.1971 51.3834 76.0987C51.0747 77.9407 50.6658 79.6121 50.1566 81.1128C49.9047 81.7873 49.646 82.4388 49.3806 83.0672C49.1016 83.6496 48.7834 84.2686 48.4259 84.9241C50.1297 84.4229 51.5531 83.4788 52.6961 82.0919C53.6184 80.9218 54.3772 79.6497 54.9726 78.2756C54.9872 78.2189 55.0044 78.162 55.0243 78.1048C55.398 76.9942 55.8598 75.7576 56.4096 74.395C56.9594 73.0325 57.5458 71.7092 58.1688 70.4252C58.7728 69.2469 59.4066 68.0848 60.0702 66.9389C60.7338 65.793 61.7794 65.0102 63.2069 64.5902C64.1739 64.3058 64.7658 64.5319 64.9825 65.2687C65.1722 65.9134 65.1126 66.7314 64.8039 67.7229C64.6305 68.3242 64.3746 69.3251 64.0361 70.7256C63.6975 72.1261 63.3698 73.6484 63.053 75.2927C62.7686 76.8773 62.5493 78.3428 62.395 79.6891C62.2406 81.0354 62.2447 81.9848 62.4073 82.5374C62.5969 83.1821 63.0141 83.4096 63.6588 83.22C64.1653 83.0709 64.7125 82.6348 65.3003 81.9115C65.8745 81.1422 66.4446 80.274 67.0107 79.3069C68.0319 77.5055 68.881 75.6296 69.5581 73.6793C70.2677 71.6693 70.8134 69.7826 71.1953 68.0192C71.6232 66.2422 71.9482 64.7957 72.1702 63.6796C72.2082 63.4683 72.2393 63.234 72.2637 62.9767C72.3205 62.6598 72.4803 62.4376 72.7431 62.3103C73.0058 62.183 73.5977 61.9839 74.5187 61.7129C75.4396 61.442 76.2374 61.0072 76.9118 60.4085L77.05 60.3679C77.1881 60.3273 77.2775 60.376 77.3182 60.5142C77.4265 60.8825 77.2085 61.2469 76.664 61.6072C76.1656 61.9539 75.6835 62.6962 75.2176 63.8339C74.7978 64.9581 74.439 66.2895 74.1411 67.8281C73.8296 69.3206 73.6008 70.8389 73.4546 72.3829C73.3084 73.927 73.2665 75.3152 73.3289 76.5477C73.3912 77.7802 73.5728 78.6524 73.8735 79.1644C74.2473 79.7549 74.6645 79.9824 75.125 79.847C75.7236 79.6708 76.4441 79.0586 77.2865 78.0103C78.1749 76.9484 79.0457 75.7416 79.899 74.3898C80.7386 72.9921 81.3981 71.7473 81.8776 70.6557C82.0915 70.1925 82.2825 69.736 82.4504 69.2863C82.6183 68.8367 82.7348 68.5522 82.7998 68.4331C82.8594 68.4656 82.9325 68.5441 83.0192 68.6687C83.0924 68.7473 83.1425 68.8326 83.1696 68.9247C83.2183 69.2606 83.198 69.6168 83.1087 69.9933C83.0057 70.3238 82.873 70.638 82.7105 70.936C82.1742 72.3446 81.4741 73.8765 80.6101 75.5316C79.7785 77.1271 78.7777 78.5723 77.6076 79.8671C76.4835 81.1485 75.1847 82.0059 73.7111 82.4393C73.2506 82.5748 72.6872 82.6155 72.0208 82.5613C71.4005 82.4936 70.9752 82.0684 70.7449 81.2855C70.5688 80.6869 70.4929 79.8336 70.5172 78.7257C70.528 77.5718 70.5686 76.4341 70.639 75.3126C70.7419 74.1316 70.8569 73.2472 70.9842 72.6594C70.643 73.7104 70.1974 74.9172 69.6476 76.2797C69.1303 77.5827 68.5561 78.7773 67.925 79.8635C67.0989 81.3074 66.1332 82.6171 65.0281 83.7928C63.9555 84.9089 62.7284 85.6701 61.347 86.0765C60.8865 86.2119 60.468 86.235 60.0914 86.1456C59.7149 86.0562 59.4521 85.7583 59.3031 85.2518C59.1135 84.6071 59.0511 83.7999 59.1161 82.8301C59.2271 81.8468 59.3612 80.8567 59.5182 79.8599C59.6753 78.863 59.8107 78.0477 59.9244 77.4138C60.1655 76.1921 60.3835 74.9772 60.5784 73.7691C60.7734 72.561 60.9467 71.5343 61.0984 70.6892C61.2636 69.8901 61.3123 69.3754 61.2446 69.1452C61.1362 68.7768 60.8599 68.858 60.4157 69.389C60.0175 69.9064 59.6424 70.417 59.2903 70.9209C58.5617 72.1859 57.8412 73.6487 57.1288 75.3092C56.5758 76.5393 56.1266 77.579 55.781 78.4286C55.7756 78.4483 55.7698 78.468 55.7637 78.4877C55.222 80.048 54.4094 81.5379 53.326 82.9573C52.229 84.3307 50.8055 85.2748 49.0557 85.7896L48.5031 85.9521C48.3189 86.0063 48.1279 86.0375 47.9302 86.0456C46.0559 89.1987 43.507 91.2494 40.2836 92.1977ZM41.734 90.4951C42.3787 90.3055 43.0017 89.872 43.603 89.1948C44.2504 88.504 44.7204 87.8905 45.0129 87.3541C45.5654 86.341 46.0354 85.3021 46.4227 84.2376C46.7964 83.1269 47.1241 82.0299 47.4058 80.9463C47.7254 79.6515 47.984 78.1495 48.1817 76.4402C48.3793 74.7309 48.2817 73.2086 47.8889 71.8732C47.5773 70.8141 47.0532 70.3929 46.3164 70.6096C45.7177 70.7857 45.0555 71.2557 44.3295 72.0196C43.6497 72.77 43.1635 73.4134 42.8709 73.9497C41.7794 76.022 40.9818 78.1579 40.478 80.3575C40.191 81.5927 39.912 83.0257 39.6412 84.6564C39.3704 86.2871 39.4111 87.7011 39.7633 88.8984L39.9259 89.451C40.0126 89.5755 40.106 89.7232 40.2062 89.8938C40.5801 90.4843 41.0894 90.6847 41.734 90.4951ZM105.659 73.0412C105.199 73.1766 104.78 73.1997 104.404 73.1103C104.027 73.0209 103.764 72.723 103.615 72.2165C103.426 71.5718 103.37 70.7876 103.449 69.8639C103.527 68.9402 103.658 68.0259 103.843 67.1212C104.013 66.1704 104.185 65.3943 104.359 64.793C103.248 66.9709 102.041 69.077 100.739 71.1114C100.08 72.1056 99.3165 73.0808 98.447 74.037C97.5775 74.9933 96.5442 75.6475 95.3469 75.9997C94.8864 76.1352 94.5234 76.0918 94.2579 75.8697C93.9789 75.6016 93.7785 75.2603 93.6565 74.8458C93.5888 74.6156 93.5644 74.4476 93.5834 74.342C93.2853 72.4784 93.3123 70.444 93.6643 68.2391C94.0164 66.0341 94.6095 63.8833 95.4437 61.7866C96.2779 59.69 97.23 57.9089 98.2999 56.4434C99.5133 54.7855 101.064 53.6789 102.952 53.1235L110.896 50.7868C111.126 50.7191 111.268 50.7773 111.322 50.9615C111.431 51.3299 111.278 51.5751 110.863 51.697C110.403 51.8324 110.03 52.2672 109.746 53.0013C109.448 53.6894 109.238 54.2514 109.116 54.6876C108.943 55.2889 108.687 56.2898 108.348 57.6903C108.01 59.0908 107.682 60.6131 107.365 62.2574C107.081 63.842 106.861 65.3075 106.707 66.6538C106.553 68.0001 106.557 68.9495 106.719 69.5021C106.909 70.1468 107.326 70.3743 107.971 70.1847C108.662 69.9815 109.35 69.4288 110.035 68.5268C110.72 67.6247 111.365 66.5845 111.969 65.4061C112.605 64.1682 113.157 62.9804 113.622 61.8426C113.981 60.9801 114.288 60.2497 114.543 59.6515C114.973 58.5726 115.431 57.4017 115.918 56.1389C116.617 54.4323 117.234 52.8747 117.771 51.4661C118.293 50.0115 118.616 49.0661 118.738 48.63C119.217 48.3889 119.913 48.034 120.826 47.5653C121.785 47.0831 122.401 46.6267 122.675 46.1959C122.772 46.0172 122.89 45.9075 123.028 45.8668C123.12 45.8397 123.194 45.9183 123.248 46.1025C123.334 46.2271 123.336 46.4018 123.252 46.6266C123.057 46.9842 122.818 47.7047 122.537 48.7883C122.301 49.8583 122.037 51.0867 121.745 52.4736C121.452 53.8605 121.169 55.1946 120.896 56.4759C121.153 55.6497 121.514 54.6678 121.98 53.53C122.479 52.3327 123.06 51.1612 123.723 50.0153C124.373 48.8234 125.071 47.7927 125.816 46.9231C126.607 46.04 127.417 45.4765 128.245 45.2327C128.844 45.0566 129.391 45.0457 129.887 45.2001C130.369 45.3084 130.82 45.6511 131.24 46.228C131.473 46.5097 131.65 46.8578 131.772 47.2723C132.003 48.0551 132.019 48.8759 131.821 49.7346C131.656 50.5337 131.535 51.1445 131.46 51.5671C131.454 51.7188 131.334 51.9043 131.098 52.1237C130.849 52.2971 130.72 52.2849 130.712 52.0872C130.69 51.8434 130.646 51.6064 130.578 51.3761C130.556 51.1324 130.505 50.8723 130.424 50.596C130.193 49.8132 129.822 49.1468 129.31 48.597C128.844 48.0336 128.22 47.867 127.437 48.0973C126.7 48.314 125.938 49.0387 125.149 50.2712C124.361 51.5038 123.614 52.8744 122.907 54.3833C122.032 56.3418 121.413 58.1499 121.05 59.8077C120.674 61.4195 120.429 62.9676 120.315 64.452L120.136 66.9062C120.063 67.6782 120.019 68.2917 120.002 68.7468C119.417 68.969 118.859 69.2832 118.328 69.6895C117.811 70.1419 117.437 70.402 117.207 70.4697C117.023 70.5239 116.969 70.3397 117.044 69.9171C117.153 69.435 117.224 68.9135 117.26 68.3528C117.341 67.7785 117.409 67.1582 117.463 66.4919C117.598 65.2512 117.739 63.8589 117.885 62.3149C118.031 60.7709 118.168 59.2797 118.295 57.8413C118.409 56.3568 118.515 55.1 118.612 54.0706C118.742 52.9817 118.835 52.2787 118.892 51.9618C118.451 52.8422 117.925 53.9474 117.316 55.2774C116.739 56.5479 116.201 57.7818 115.703 58.9791C115.205 60.1764 114.829 61.1123 114.578 61.7868C114.542 61.8818 114.506 61.9591 114.469 62.0188C113.938 63.3444 113.308 64.739 112.578 66.2025C111.747 67.798 110.746 69.2432 109.576 70.5381C108.438 71.7733 107.133 72.6077 105.659 73.0412ZM97.488 72.8181C98.0406 72.6555 98.6853 72.0406 99.422 70.9733C100.191 69.8464 100.975 68.515 101.774 66.9791C102.56 65.3971 103.263 63.7894 103.883 62.156C104.49 60.4765 104.953 58.9893 105.272 57.6945C105.624 56.3401 105.712 55.3636 105.536 54.7649C105.387 54.2584 105.125 53.9604 104.748 53.8711C104.418 53.7682 104.022 53.7844 103.562 53.9199C102.825 54.1366 102.1 54.65 101.388 55.4599C100.708 56.2103 100.189 56.9133 99.8318 57.5688C99.4282 58.2379 98.9975 59.2402 98.5398 60.5756C98.1146 61.8515 97.7232 63.2425 97.3657 64.7486C97.0083 66.2547 96.7523 67.6809 96.598 69.0272C96.4437 70.3735 96.4749 71.415 96.6916 72.1518C96.8542 72.7044 97.1196 72.9265 97.488 72.8181ZM139.428 63.4828C137.539 64.0382 136.119 64.0559 135.165 63.5358C134.212 63.0158 133.579 62.2262 133.268 61.1671C132.875 59.8317 132.8 58.3025 133.044 56.5797C133.334 54.8434 133.645 53.3508 133.978 52.1021C134.39 50.7801 135.041 49.3377 135.932 47.7747C136.824 46.2116 137.884 44.7989 139.114 43.5366C140.343 42.2742 141.649 41.4399 143.03 41.0335C144.228 40.6813 145.145 40.7368 145.781 41.1999C146.404 41.6171 146.831 42.217 147.061 42.9999C147.481 44.4274 147.389 45.7303 146.785 46.9087C146.227 48.0735 145.415 49.1381 144.347 50.1025C143.267 51.0208 142.205 51.8335 141.162 52.5405C140.525 52.9279 139.774 53.3492 138.907 53.8043C138.04 54.2594 137.192 54.6089 136.363 54.8527C136.285 55.7764 136.269 56.6568 136.315 57.4938C136.361 58.3308 136.479 59.0717 136.668 59.7164C136.899 60.4992 137.273 61.0897 137.79 61.4878C138.353 61.8725 139.096 61.9293 140.017 61.6584C140.385 61.55 140.809 61.3753 141.288 61.1342C141.768 60.8931 142.28 60.5924 142.824 60.2321C144.07 59.3652 145.212 58.2288 146.249 56.8229C147.287 55.417 148.189 53.9759 148.955 52.4995C149.754 50.9636 150.338 49.7162 150.706 48.7572C150.885 48.8547 151.001 48.9956 151.056 49.1798C151.123 49.41 151.071 49.8258 150.897 50.4272C150.356 51.9875 149.551 53.6751 148.484 55.4901C147.417 57.305 146.127 58.9601 144.616 60.4555C143.091 61.9048 141.362 62.9139 139.428 63.4828ZM136.51 53.3087C137.122 53.1786 137.79 52.9822 138.513 52.7194C139.269 52.3971 139.981 52.0124 140.65 51.5654C142.375 50.4574 143.476 49.1829 143.953 47.7418C144.462 46.2411 144.575 45.0072 144.29 44.0402C144.128 43.4876 143.877 43.061 143.538 42.7603C143.2 42.4596 142.777 42.3838 142.271 42.5328C140.935 42.9257 139.887 43.7844 139.126 45.109C138.351 46.3876 137.762 47.7868 137.359 49.3064C136.955 50.8261 136.672 52.1602 136.51 53.3087ZM167.022 54.99C166.562 55.1255 166.143 55.1485 165.767 55.0592C165.39 54.9698 165.127 54.6718 164.978 54.1653C164.789 53.5206 164.726 52.7134 164.791 51.7436C164.902 50.7603 165.036 49.7703 165.193 48.7734C165.35 47.7766 165.486 46.9612 165.6 46.3274C165.708 45.8452 165.818 45.1125 165.929 44.1292C166.072 43.0863 166.209 42.0204 166.339 40.9314C166.501 39.7829 166.619 38.8226 166.692 38.0506L166.871 36.8723C166.592 37.4547 166.229 38.2619 165.782 39.294C165.381 40.3125 164.925 41.3974 164.413 42.5487C163.934 43.6403 163.487 44.6724 163.072 45.6449C162.704 46.6038 162.436 47.3081 162.268 47.7578C162.184 47.9826 162.096 48.1086 162.004 48.1357C161.912 48.1628 161.832 48.0612 161.764 47.8309C161.656 47.4625 161.669 47.0833 161.805 46.6932C162.154 45.84 162.578 44.8147 163.076 43.6173L164.531 39.8873C165.062 38.6303 165.511 37.5224 165.88 36.5635C165.511 36.6719 165.034 36.8371 164.449 37.0593C163.91 37.2679 163.424 37.486 162.991 37.7135C162.544 37.895 162.297 37.9926 162.251 38.0061C162.021 38.0738 161.99 37.8829 162.158 37.4332C162.326 36.9835 162.586 36.5068 162.938 36.0029C163.29 35.4991 163.581 35.2133 163.811 35.1455C163.857 35.132 164.233 35.0466 164.937 34.8895L166.456 34.4425C167.012 32.9282 167.49 31.2366 167.89 29.3675C168.337 27.4848 168.714 25.4478 169.02 23.2564C169.375 23.102 169.922 22.6658 170.661 21.948C171.433 21.1705 171.998 20.454 172.355 19.7984C172.518 19.5005 172.668 19.3312 172.806 19.2905C173.083 19.2092 173.137 19.3934 172.969 19.8431C172.755 20.3063 172.433 21.2517 172.002 22.6793C171.558 24.0608 171.096 25.7226 170.617 27.6649C170.124 29.5611 169.704 31.5358 169.357 33.5891L174.952 31.9432C175.459 31.7942 175.733 31.7888 175.773 31.9269C175.827 32.1111 175.536 32.3969 174.9 32.7843C174.185 33.2448 173.396 33.6268 172.535 33.9302C171.72 34.2201 170.964 34.5425 170.268 34.8974C169.618 35.2387 169.199 35.687 169.012 36.2424C168.831 36.646 168.643 37.4519 168.448 38.66C168.253 39.8681 168.059 41.251 167.867 42.8085C167.707 44.3065 167.623 45.8072 167.615 47.3106C167.593 48.7679 167.672 49.9706 167.851 50.9187L167.932 51.195C168.041 51.5634 168.244 51.8288 168.542 51.9913C168.84 52.1538 169.104 52.2012 169.334 52.1335C169.933 51.9574 170.584 51.3655 171.288 50.3578C172.039 49.3365 172.771 48.1704 173.486 46.8593C174.188 45.5021 174.778 44.2777 175.258 43.1861C175.472 42.7228 175.646 42.2962 175.782 41.9061C175.963 41.5025 176.063 41.2479 176.082 41.1422C176.093 41.154 176.104 41.1655 176.114 41.1769C176.394 38.479 176.753 35.7069 177.192 32.8605C177.574 30.2465 178.05 27.5296 178.622 24.7097C179.239 21.8763 180.029 19.1173 180.99 16.4328C181.938 13.7023 183.128 11.2007 184.561 8.92795C185.832 6.95318 187.344 5.20729 189.1 3.69027C190.887 2.11367 192.978 0.973166 195.373 0.268763C196.432 -0.0427992 197.421 -0.0834788 198.339 0.146725C199.244 0.330879 199.905 0.961997 200.322 2.04008L200.505 2.66174C200.695 3.30642 200.815 3.97143 200.867 4.65675C200.875 4.85449 200.718 5.00077 200.395 5.0956C200.257 5.13624 200.204 5.12676 200.237 5.06716C200.069 3.81571 199.496 3.05863 198.518 2.79592C197.586 2.51967 196.499 2.56441 195.255 2.93016C192.999 3.59392 191.049 4.61794 189.404 6.00222C187.76 7.38649 186.335 9.00642 185.13 10.862C183.28 13.7578 181.929 17.1574 181.076 21.0608C180.223 24.9642 179.643 28.8622 179.337 32.7548L178.907 38.4351C178.809 40.3151 178.701 42.0731 178.582 43.7092C179.841 40.3367 181.124 37.3827 182.429 34.8472C183.781 32.2981 185.048 30.3992 186.232 29.1504C187.194 28.1671 188.135 27.5399 189.056 27.269C189.931 27.0116 190.477 27.2513 190.694 27.9881C190.883 28.6328 190.805 29.5565 190.458 30.7592C190.285 31.3606 190.029 32.3615 189.69 33.762C189.398 35.1489 189.093 36.6645 188.776 38.3087C188.492 39.8934 188.272 41.3588 188.118 42.7051C187.964 44.0514 187.968 45.0008 188.13 45.5534C188.347 46.2902 188.778 46.5638 189.423 46.3741C189.791 46.2658 190.172 46.0287 190.564 45.663C191.003 45.2838 191.311 44.9682 191.487 44.7162C192.459 43.4295 193.347 41.9423 194.152 40.2547C194.956 38.5671 195.624 37.0948 196.155 35.8379C196.187 35.7783 196.231 35.8406 196.285 36.0248L196.287 36.0322C196.466 35.1419 196.652 34.334 196.846 33.6083C197.257 32.2864 197.909 30.8439 198.8 29.2809C199.691 27.7179 200.751 26.3052 201.981 25.0429C203.211 23.7805 204.517 22.9461 205.898 22.5397C207.095 22.1875 208.012 22.243 208.649 22.7062C209.272 23.1233 209.699 23.7233 209.929 24.5061C210.349 25.9337 210.257 27.2366 209.653 28.4149C209.095 29.5798 208.282 30.6443 207.215 31.6087C206.134 32.5271 205.072 33.3398 204.029 34.0468C203.393 34.4342 202.641 34.8554 201.774 35.3106C200.908 35.7657 200.06 36.1152 199.231 36.359C199.152 37.2827 199.136 38.1631 199.182 39.0001C199.228 39.8371 199.346 40.5779 199.536 41.2226C199.766 42.0055 200.14 42.596 200.657 42.9941C201.221 43.3787 201.963 43.4356 202.884 43.1647C203.253 43.0563 203.676 42.8816 204.156 42.6405C204.635 42.3993 205.147 42.0986 205.692 41.7383C206.938 40.8715 208.079 39.7351 209.117 38.3292C210.154 36.9232 211.056 35.4821 211.823 34.0058C212.622 32.4699 213.205 31.2224 213.574 30.2635C213.753 30.361 213.869 30.5019 213.923 30.6861C213.991 30.9163 213.938 31.3321 213.765 31.9335C213.223 33.4938 212.419 35.1814 211.352 36.9963C210.284 38.8113 208.995 40.4664 207.484 41.9617C205.959 43.411 204.229 44.4201 202.295 44.9891C200.407 45.5445 198.986 45.5621 198.033 45.0421C197.079 44.5221 196.447 43.7325 196.135 42.6733C195.806 41.553 195.7 40.2964 195.818 38.9035C195.629 39.3796 195.43 39.8503 195.221 40.3156L194.229 42.5586C193.652 43.829 192.878 45.1076 191.905 46.3943C190.979 47.6675 189.756 48.5276 188.236 48.9746C187.546 49.1778 186.883 49.2225 186.249 49.1088C185.662 48.9815 185.259 48.5495 185.043 47.8127C184.921 47.3983 184.877 46.9107 184.912 46.35C185.015 45.1689 185.189 43.717 185.432 41.9942C185.722 40.2578 186.025 38.5675 186.342 36.9233C186.646 35.233 186.869 33.8664 187.012 32.8235C187.126 32.1896 187.149 31.7576 187.082 31.5273C186.96 31.1129 186.702 31.0885 186.309 31.4542C185.917 31.8199 185.505 32.2913 185.074 32.8683C184.644 33.4453 184.324 33.8895 184.115 34.201C183.243 35.6584 182.363 37.3433 181.475 39.2558C180.619 41.1086 179.882 43.0265 179.265 45.0094C178.68 46.9327 178.325 48.7882 178.2 50.576C178.236 50.8658 178.004 51.1841 177.506 51.5309C177.007 51.8776 176.528 52.1187 176.067 52.2542C175.33 52.471 174.986 52.322 175.035 51.8073C175.347 49.4316 175.618 46.8554 175.85 44.0788C175.351 45.316 174.731 46.6437 173.99 48.062C173.113 49.671 172.089 51.123 170.919 52.4178C169.795 53.6992 168.496 54.5566 167.022 54.99ZM199.377 34.815C199.989 34.6849 200.657 34.4885 201.38 34.2257C202.136 33.9033 202.848 33.5186 203.517 33.0717C205.243 31.9637 206.344 30.6891 206.821 29.248C207.33 27.7473 207.442 26.5135 207.158 25.5464C206.995 24.9939 206.745 24.5672 206.406 24.2666C206.067 23.9659 205.645 23.8901 205.138 24.0391C203.803 24.4319 202.755 25.2907 201.993 26.6153C201.219 27.8939 200.63 29.293 200.226 30.8127C199.823 32.3323 199.54 33.6664 199.377 34.815ZM141.283 110.206C144.691 111.55 147.355 113.47 149.275 115.966C151.243 118.462 152.227 121.246 152.227 124.318C152.227 127.342 150.883 130.198 148.195 132.886C145.507 135.526 142.171 137.638 138.187 139.222C134.203 140.806 130.411 141.598 126.811 141.598C124.411 141.598 122.059 141.478 119.755 141.238C115.915 140.998 112.939 140.878 110.827 140.878H99.3786V136.27L106.147 130.942V91.4856L98.0826 89.4696L100.675 84.2856H110.755C115.123 84.2856 119.419 84.1416 123.643 83.8536C126.907 83.6616 129.307 83.5656 130.843 83.5656C134.539 83.5656 137.779 84.1896 140.563 85.4376C143.347 86.6856 145.507 88.3896 147.043 90.5496C148.579 92.6616 149.347 95.0376 149.347 97.6776C149.347 100.03 148.627 102.286 147.187 104.446C145.747 106.558 143.803 108.454 141.355 110.134L141.283 110.206ZM134.371 101.71C134.371 98.3496 133.603 95.6616 132.067 93.6456C130.531 91.5816 128.251 90.5496 125.227 90.5496C123.499 90.5496 121.891 90.8376 120.403 91.4136V109.702H127.747C132.163 109.702 134.371 107.038 134.371 101.71ZM128.755 134.038C131.347 134.038 133.387 133.366 134.875 132.022C136.411 130.678 137.179 128.83 137.179 126.478C137.179 123.358 136.315 120.79 134.587 118.774C132.907 116.758 130.411 115.654 127.099 115.462H125.659H120.331V132.598C122.923 133.51 125.755 133.966 128.827 133.966L128.755 134.038ZM202.978 140.878H156.826V136.27L163.594 130.942V91.7736L155.53 89.4696L158.122 84.2856H202.258L207.874 82.9896V101.854L203.338 103.798L194.41 90.4776H177.85V108.91H185.626L190.882 101.134H195.49V121.87L190.234 124.462L185.482 115.03H177.85V134.686H193.762L204.058 119.926L208.594 121.798V142.174L202.978 140.878ZM245.477 129.286C245.477 127.846 244.901 126.478 243.749 125.182C242.645 123.886 241.277 122.71 239.645 121.654C238.013 120.55 235.733 119.158 232.805 117.478C229.205 115.414 226.325 113.662 224.165 112.222C222.005 110.734 220.157 109.006 218.621 107.038C217.085 105.022 216.317 102.814 216.317 100.414C216.317 98.0136 217.445 95.4456 219.701 92.7096C221.957 89.9256 224.717 87.5976 227.981 85.7256C231.293 83.8056 234.317 82.8456 237.053 82.8456C240.365 82.8456 244.229 83.2056 248.645 83.9256C253.109 84.6456 256.373 85.4136 258.437 86.2296V102.502H250.373C248.549 98.6136 246.461 95.5896 244.109 93.4296C241.757 91.2696 239.309 90.1896 236.765 90.1896C235.085 90.1896 233.765 90.7416 232.805 91.8456C231.845 92.9016 231.365 94.2696 231.365 95.9496C231.365 97.4856 231.941 98.9496 233.093 100.342C234.245 101.686 235.661 102.934 237.341 104.086C239.069 105.19 241.421 106.558 244.397 108.19C247.901 110.158 250.709 111.862 252.821 113.302C254.981 114.742 256.805 116.446 258.293 118.414C259.829 120.334 260.597 122.47 260.597 124.822C260.597 127.222 259.373 129.814 256.925 132.598C254.525 135.334 251.597 137.662 248.141 139.582C244.685 141.454 241.517 142.39 238.637 142.39C235.133 142.39 231.005 142.03 226.253 141.31C221.501 140.59 218.069 139.822 215.957 139.006V122.662H223.949C225.917 126.55 228.221 129.574 230.861 131.734C233.549 133.894 236.261 134.974 238.997 134.974C240.965 134.974 242.525 134.422 243.677 133.318C244.877 132.214 245.477 130.87 245.477 129.286ZM321.667 103.294L317.131 105.238L306.907 90.4776H300.859V133.606L308.995 135.622L306.403 140.878H279.835V136.27L286.603 130.942V90.4776H280.699L270.475 105.238L266.011 103.294V82.9896L271.555 84.2856H316.051L321.667 82.9896V103.294ZM97.1809 158.806C94.1569 158.806 92.6449 159.838 92.6449 161.902C92.6449 163.678 93.1729 164.83 94.2289 165.358C95.2849 165.838 97.1569 166.078 99.8449 166.078L108.269 166.006C107.981 172.15 107.837 175.822 107.837 177.022C107.837 178.798 107.933 181.798 108.125 186.022C108.317 191.11 108.413 195.358 108.413 198.766C108.413 200.494 108.725 201.79 109.349 202.654C109.973 203.47 111.173 203.878 112.949 203.878C115.205 203.878 116.333 202.894 116.333 200.926L116.189 198.838C115.757 191.494 115.541 184.246 115.541 177.094C115.541 171.094 115.613 167.302 115.757 165.718C116.429 165.67 117.413 165.646 118.709 165.646C120.053 165.646 121.613 165.814 123.389 166.15C125.405 166.438 126.941 166.582 127.997 166.582C128.957 166.582 129.773 166.222 130.445 165.502C131.117 164.734 131.453 163.822 131.453 162.766C131.453 161.998 131.285 161.446 130.949 161.11C130.613 160.774 130.181 160.486 129.653 160.246C127.829 159.382 125.597 158.902 122.957 158.806C122.525 158.806 121.493 158.854 119.861 158.95C117.461 159.142 115.421 159.238 113.741 159.238C111.677 159.238 108.629 159.142 104.597 158.95C100.949 158.854 98.4769 158.806 97.1809 158.806ZM129.359 183.142C128.687 184.966 128.351 186.79 128.351 188.614C128.351 190.774 128.687 192.814 129.359 194.734C130.031 196.606 130.943 198.214 132.095 199.558C133.487 201.046 135.239 202.198 137.351 203.014C139.463 203.83 141.647 204.238 143.903 204.238C145.007 204.238 146.447 204.07 148.223 203.734C150.047 203.35 151.655 202.774 153.047 202.006C154.439 201.238 155.135 200.254 155.135 199.054C155.135 198.19 154.895 197.494 154.415 196.966C153.935 196.39 153.239 196.102 152.327 196.102C151.559 196.102 150.575 196.318 149.375 196.75C147.887 197.326 146.279 197.614 144.551 197.614C142.919 197.614 141.575 197.494 140.519 197.254C139.511 197.014 138.527 196.438 137.567 195.526C137.039 195.046 136.583 194.35 136.199 193.438C135.815 192.526 135.575 191.59 135.479 190.63C136.967 190.966 138.503 191.254 140.087 191.494C141.671 191.686 143.015 191.782 144.119 191.782C145.847 191.782 147.575 191.638 149.303 191.35C151.079 191.062 152.375 190.486 153.191 189.622C154.199 188.566 154.967 187.582 155.495 186.67C156.071 185.758 156.359 184.654 156.359 183.358C156.359 180.958 155.471 178.51 153.695 176.014C152.927 174.91 151.535 174.094 149.519 173.566C147.551 173.038 145.607 172.774 143.687 172.774C141.815 172.774 139.679 173.278 137.279 174.286C134.879 175.246 133.127 176.494 132.023 178.03C130.919 179.566 130.031 181.27 129.359 183.142ZM140.879 179.542C141.935 179.11 142.991 178.894 144.047 178.894C145.439 178.894 146.759 179.302 148.007 180.118C149.255 180.934 149.879 181.846 149.879 182.854C149.879 183.862 149.303 184.678 148.151 185.302C147.047 185.926 145.463 186.238 143.399 186.238C139.607 186.238 137.111 186.046 135.911 185.662C136.007 184.702 136.199 183.958 136.487 183.43C136.823 182.854 137.423 182.11 138.287 181.198C138.959 180.478 139.823 179.926 140.879 179.542ZM186.855 203.446C187.719 203.926 188.967 204.166 190.599 204.166C191.175 204.166 191.751 203.83 192.327 203.158C192.951 202.438 193.263 201.838 193.263 201.358C193.263 200.878 193.167 200.446 192.975 200.062C192.783 199.678 192.375 199.318 191.751 198.982C191.079 198.598 190.551 198.118 190.167 197.542C189.783 196.966 189.591 196.366 189.591 195.742C189.591 195.166 189.639 194.446 189.735 193.582C189.831 192.91 189.879 192.358 189.879 191.926C189.879 191.014 189.927 189.838 190.023 188.398C190.119 187.15 190.167 186.214 190.167 185.59C190.167 183.622 189.759 181.822 188.943 180.19C188.175 178.51 187.071 177.046 185.631 175.798C184.431 174.838 182.871 174.07 180.951 173.494C179.031 172.918 177.375 172.63 175.983 172.63C174.543 172.63 172.983 172.894 171.303 173.422C169.623 173.902 168.183 174.646 166.983 175.654C165.831 176.662 165.255 177.862 165.255 179.254C165.255 179.926 165.423 180.598 165.759 181.27C166.143 181.894 166.719 182.206 167.487 182.206C169.023 182.206 170.031 181.894 170.511 181.27C171.807 179.686 173.343 178.894 175.119 178.894C177.903 178.894 179.919 179.398 181.167 180.406C182.463 181.366 183.111 183.142 183.111 185.734V185.806C181.095 185.326 178.791 185.086 176.199 185.086C174.663 185.086 172.959 185.35 171.087 185.878C169.263 186.406 167.679 187.126 166.335 188.038C165.135 188.902 164.151 189.91 163.383 191.062C162.663 192.166 162.303 193.39 162.303 194.734C162.303 197.854 163.191 200.23 164.967 201.862C166.791 203.446 169.167 204.238 172.095 204.238C173.871 204.238 175.983 203.902 178.431 203.23C180.927 202.558 182.799 201.67 184.047 200.566C185.055 201.958 185.991 202.918 186.855 203.446ZM171.231 191.494C172.671 190.774 174.327 190.414 176.199 190.414C178.071 190.414 180.303 190.63 182.895 191.062C182.847 191.35 182.823 191.758 182.823 192.286C182.775 193.678 182.631 194.758 182.391 195.526C180.423 196.678 178.743 197.47 177.351 197.902C175.959 198.334 174.231 198.55 172.167 198.55C171.399 198.55 170.679 198.238 170.007 197.614C169.383 196.99 169.071 196.222 169.071 195.31C169.071 193.486 169.791 192.214 171.231 191.494ZM220.997 182.998C223.157 182.998 224.237 181.942 224.237 179.83C224.237 178.342 223.661 177.046 222.509 175.942C221.357 174.838 219.941 173.998 218.261 173.422C216.581 172.846 214.949 172.558 213.365 172.558C210.581 172.558 208.013 173.278 205.661 174.718C203.309 176.158 201.437 178.15 200.045 180.694C198.653 183.238 197.957 186.046 197.957 189.118C197.957 191.998 198.677 194.59 200.117 196.894C201.557 199.15 203.477 200.926 205.877 202.222C208.325 203.518 210.965 204.166 213.797 204.166C215.573 204.166 217.421 203.926 219.341 203.446C221.309 202.918 222.965 202.174 224.309 201.214C225.653 200.206 226.325 198.982 226.325 197.542C226.325 196.822 225.989 196.222 225.317 195.742C224.645 195.262 224.045 195.022 223.517 195.022C222.941 195.022 222.389 195.118 221.861 195.31C221.333 195.502 220.685 195.79 219.917 196.174C217.805 197.278 216.053 197.83 214.661 197.83C214.037 197.83 213.293 197.734 212.429 197.542C211.613 197.35 210.893 197.086 210.269 196.75C208.589 195.79 207.341 194.638 206.525 193.294C205.757 191.95 205.373 190.27 205.373 188.254C205.373 186.43 205.781 184.774 206.597 183.286C207.413 181.798 208.469 180.646 209.765 179.83C211.109 179.014 212.477 178.606 213.869 178.606C214.925 178.606 216.173 179.398 217.613 180.982C218.189 181.654 218.717 182.158 219.197 182.494C219.677 182.83 220.277 182.998 220.997 182.998ZM254.531 199.918C255.779 202.702 258.203 204.094 261.803 204.094C262.475 204.094 263.027 203.854 263.459 203.374C263.891 202.846 264.107 202.342 264.107 201.862C264.107 201.382 264.011 200.95 263.819 200.566C263.627 200.182 263.219 199.798 262.595 199.414C261.923 198.982 261.323 198.31 260.795 197.398C260.315 196.486 260.051 195.622 260.003 194.806C259.907 193.078 259.859 191.806 259.859 190.99L259.931 185.734C259.931 183.67 259.883 182.11 259.787 181.054C259.451 178.99 258.491 177.166 256.907 175.582C255.371 173.95 253.691 173.134 251.867 173.134C249.371 173.134 247.187 173.662 245.315 174.718C243.491 175.726 241.859 177.286 240.419 179.398C240.515 178.006 240.563 176.11 240.563 173.71C240.563 171.262 240.635 168.814 240.779 166.366C240.827 165.502 240.875 164.254 240.923 162.622C240.971 160.942 240.995 159.478 240.995 158.23C240.995 157.222 240.755 156.478 240.275 155.998C239.795 155.518 239.027 155.278 237.971 155.278C236.771 155.278 235.691 155.686 234.731 156.502C233.771 157.27 233.291 158.182 233.291 159.238L233.507 165.862C233.747 175.702 233.867 181.39 233.867 182.926L233.939 192.43C233.939 196.03 233.843 199.054 233.651 201.502C233.651 202.27 234.059 202.894 234.875 203.374C235.739 203.854 236.723 204.094 237.827 204.094C240.083 204.094 241.211 203.278 241.211 201.646C241.211 200.782 241.163 199.534 241.067 197.902C240.923 196.606 240.851 195.166 240.851 193.582C240.851 191.182 241.283 188.878 242.147 186.67C243.059 184.414 244.187 182.614 245.531 181.27C246.875 179.878 248.219 179.182 249.563 179.182C251.867 179.182 253.019 180.91 253.019 184.366V186.598C253.019 189.622 253.115 192.262 253.307 194.518C253.499 196.726 253.907 198.526 254.531 199.918ZM269.56 182.782C268.936 184.27 268.624 185.878 268.624 187.606C268.624 189.622 268.984 191.734 269.704 193.942C270.424 196.15 271.24 198.022 272.152 199.558C273.496 201.046 275.296 202.198 277.552 203.014C279.808 203.83 282.088 204.238 284.392 204.238C287.32 204.238 289.936 203.662 292.24 202.51C294.592 201.358 295.768 199.87 295.768 198.046C295.768 197.182 295.528 196.486 295.048 195.958C294.568 195.382 293.872 195.094 292.96 195.094C292.288 195.094 291.328 195.502 290.08 196.318C288.736 197.23 286.864 197.686 284.464 197.686C282.88 197.686 281.608 197.566 280.648 197.326C279.736 197.038 278.8 196.438 277.84 195.526C277.312 195.046 276.856 194.35 276.472 193.438C276.088 192.526 275.848 191.614 275.752 190.702C278.008 191.182 280.936 191.422 284.536 191.422C288.136 191.422 291.112 190.894 293.464 189.838C295.816 188.734 296.992 186.574 296.992 183.358C296.992 182.59 296.872 181.846 296.632 181.126C296.44 180.406 296.104 179.614 295.624 178.75C295.144 177.838 294.808 177.214 294.616 176.878C293.176 175.726 291.544 174.766 289.72 173.998C287.944 173.182 286.096 172.774 284.176 172.774C281.68 172.774 279.376 173.254 277.264 174.214C275.152 175.126 273.496 176.398 272.296 178.03C271.096 179.662 270.184 181.246 269.56 182.782ZM281.152 179.254C282.304 178.87 283.408 178.678 284.464 178.678C285.856 178.678 287.176 179.086 288.424 179.902C289.72 180.718 290.368 181.63 290.368 182.638C290.368 183.694 289.792 184.534 288.64 185.158C287.536 185.782 285.928 186.094 283.816 186.094C282.76 186.094 281.176 185.998 279.064 185.806C278.632 185.758 278.176 185.71 277.696 185.662C277.216 185.614 276.712 185.59 276.184 185.59C276.28 184.582 276.496 183.742 276.832 183.07C277.216 182.398 277.792 181.654 278.56 180.838C279.184 180.118 280.048 179.59 281.152 179.254ZM312.935 203.158C313.511 202.534 313.847 201.814 313.943 200.998C314.135 199.798 314.231 198.19 314.231 196.174L314.159 193.438L314.231 189.334C314.279 188.854 314.303 188.206 314.303 187.39C314.303 186.286 314.471 185.254 314.807 184.294C315.191 183.334 315.767 182.254 316.535 181.054C316.775 180.718 317.231 180.43 317.903 180.19C318.575 179.95 319.295 179.83 320.063 179.83C320.495 179.83 320.903 179.926 321.287 180.118C321.719 180.262 322.103 180.454 322.439 180.694C323.303 181.27 324.047 181.558 324.671 181.558C325.487 181.558 326.279 181.078 327.047 180.118C327.863 179.11 328.271 178.15 328.271 177.238C328.271 175.654 327.575 174.55 326.183 173.926C324.839 173.254 323.183 172.918 321.215 172.918C319.679 172.918 318.095 173.398 316.463 174.358C314.879 175.318 313.535 176.59 312.431 178.174C311.903 176.734 311.135 175.534 310.127 174.574C309.119 173.614 307.919 173.134 306.527 173.134C305.279 173.134 304.223 173.422 303.359 173.998C302.495 174.574 302.063 175.414 302.063 176.518C302.063 176.902 302.207 177.334 302.495 177.814C302.783 178.246 303.143 178.558 303.575 178.75C304.631 179.086 305.399 179.494 305.879 179.974C306.407 180.454 306.743 181.102 306.887 181.918C306.887 182.446 306.935 183.238 307.031 184.294C307.127 185.446 307.175 186.406 307.175 187.174C307.175 188.662 307.079 190.798 306.887 193.582C306.647 195.982 306.527 198.19 306.527 200.206C306.527 201.694 306.863 202.726 307.535 203.302C308.207 203.83 309.263 204.094 310.703 204.094C311.615 204.094 312.359 203.782 312.935 203.158ZM64.8555 46.6161L56.2431 57.574L50.9554 47.6347L64.8555 46.6161ZM90.2431 44.574L98.8555 33.6161L84.9554 34.6347L90.2431 44.574ZM114.855 27.6161L106.243 38.574L100.955 28.6347L114.855 27.6161ZM122.243 32.574L130.855 21.6161L116.955 22.6347L122.243 32.574ZM165.855 9.61612L157.243 20.574L151.955 10.6347L165.855 9.61612ZM73.2431 50.574L81.8555 39.6161L67.9554 40.6347L73.2431 50.574ZM148.855 14.6161L140.243 25.574L134.955 15.6347L148.855 14.6161ZM261.148 50.9124C262.413 50.7116 263.982 51.3774 265.735 52.9666C267.45 51.438 268.986 50.7993 270.228 50.9965C271.64 51.2205 272.401 52.4565 272.552 53.9593C272.853 56.9586 270.877 61.5858 265.969 64.9262L265.659 64.4708L265.407 64.8421C260.499 61.5017 258.523 56.8745 258.824 53.8752C258.975 52.3724 259.736 51.1364 261.148 50.9124ZM265.343 53.9677L265.648 53.6482L266.033 54.0518C267.848 52.3186 269.216 51.8484 270.071 51.9841C270.851 52.1079 271.43 52.7926 271.557 54.0592C271.805 56.5364 270.182 60.6948 265.747 63.8619C261.222 60.6846 259.568 56.4743 259.819 53.9751C259.946 52.7085 260.525 52.0238 261.304 51.9C262.16 51.7643 263.528 52.2345 265.343 53.9677ZM18.9403 179.089C17.1874 177.5 15.6181 176.834 14.3532 177.035C12.9415 177.259 12.1805 178.495 12.0297 179.998C11.7285 182.997 13.7043 187.624 18.6122 190.965L18.8649 190.593L19.1748 191.049C24.0827 187.708 26.0585 183.081 25.7573 180.082C25.6064 178.579 24.8455 177.343 23.4337 177.119C22.1914 176.922 20.6555 177.56 18.9403 179.089ZM18.8533 179.771L18.5482 180.09C16.7334 178.357 15.3653 177.887 14.5099 178.022C13.7301 178.146 13.1518 178.831 13.0247 180.098C12.7737 182.597 14.428 186.807 18.9529 189.984C23.388 186.817 25.011 182.659 24.7623 180.182C24.6351 178.915 24.0569 178.23 23.277 178.107C22.4217 177.971 21.0535 178.441 19.2388 180.174L18.8533 179.771ZM397.353 109.035C398.618 108.834 400.187 109.5 401.94 111.089C403.655 109.56 405.191 108.922 406.434 109.119C407.846 109.343 408.606 110.579 408.757 112.082C409.058 115.081 407.083 119.708 402.175 123.049L401.865 122.593L401.612 122.965C396.704 119.624 394.729 114.997 395.03 111.998C395.181 110.495 395.941 109.259 397.353 109.035ZM401.548 112.09L401.853 111.771L402.239 112.174C404.054 110.441 405.422 109.971 406.277 110.107C407.057 110.23 407.635 110.915 407.762 112.182C408.011 114.659 406.388 118.817 401.953 121.984C397.428 118.807 395.774 114.597 396.025 112.098C396.152 110.831 396.73 110.146 397.51 110.022C398.365 109.887 399.733 110.357 401.548 112.09ZM346.735 163.967C344.982 162.377 343.413 161.712 342.148 161.912C340.736 162.136 339.975 163.372 339.824 164.875C339.523 167.875 341.499 172.502 346.407 175.842L346.659 175.471L346.969 175.926C351.877 172.586 353.853 167.959 353.552 164.959C353.401 163.457 352.64 162.221 351.228 161.996C349.986 161.799 348.45 162.438 346.735 163.967ZM346.648 164.648L346.343 164.968C344.528 163.235 343.16 162.764 342.304 162.9C341.524 163.024 340.946 163.709 340.819 164.975C340.568 167.474 342.222 171.685 346.747 174.862C351.182 171.695 352.805 167.536 352.557 165.059C352.43 163.793 351.851 163.108 351.071 162.984C350.216 162.848 348.848 163.319 347.033 165.052L346.648 164.648ZM56.1476 147.912C57.4125 147.712 58.9817 148.377 60.7346 149.967C62.4498 148.438 63.9858 147.799 65.2281 147.996C66.6399 148.221 67.4008 149.457 67.5517 150.959C67.8528 153.959 65.8771 158.586 60.9691 161.926L60.6592 161.471L60.4066 161.842C55.4986 158.502 53.5229 153.875 53.824 150.875C53.9749 149.372 54.7358 148.136 56.1476 147.912ZM60.3426 150.968L60.6477 150.648L61.0332 151.052C62.8479 149.319 64.2161 148.848 65.0714 148.984C65.8513 149.108 66.4295 149.793 66.5567 151.059C66.8054 153.536 65.1823 157.695 60.7472 160.862C56.2223 157.685 54.5681 153.474 54.819 150.975C54.9462 149.709 55.5244 149.024 56.3043 148.9C57.1596 148.764 58.5278 149.235 60.3426 150.968Z" fill="#0E7211"/>
</svg>
